<mxfile host="app.diagrams.net" modified="2023-09-11T15:30:13.817Z" agent="Mozilla/5.0 (Windows NT 10.0; Win64; x64; rv:109.0) Gecko/20100101 Firefox/117.0" version="21.6.9" etag="tx0Z34iBNqVlG0A80NgP" type="github">
  <diagram name="第 1 页" id="oh3v3QMspqih_ycW03MH">
    <mxGraphModel>
      <root>
        <mxCell id="0" />
        <mxCell id="1" parent="0" />
      </root>
    </mxGraphModel>
  </diagram>
</mxfile>
